<svg width="25" height="24" viewBox="0 0 25 24" fill="none" xmlns="http://www.w3.org/2000/svg">
<g id="image-outline">
<path id="Union" fill-rule="evenodd" clip-rule="evenodd" d="M5.82837 19H19.8284V5H5.82837V19ZM5.82837 3H19.8284C20.3588 3 20.8675 3.21071 21.2426 3.58579C21.6177 3.96086 21.8284 4.46957 21.8284 5V19C21.8284 19.5304 21.6177 20.0391 21.2426 20.4142C20.8675 20.7893 20.3588 21 19.8284 21H5.82837C5.29794 21 4.78923 20.7893 4.41416 20.4142C4.03908 20.0391 3.82837 19.5304 3.82837 19V5C3.82837 4.46957 4.03908 3.96086 4.41416 3.58579C4.78923 3.21071 5.29794 3 5.82837 3ZM12.0384 15.83L14.7884 12.29L18.3284 17H7.32837L10.0784 13.47L12.0384 15.83ZM11.8284 9.5C11.8284 8.67 11.1584 8 10.3284 8C9.49837 8 8.82837 8.67 8.82837 9.5C8.82837 10.33 9.49837 11 10.3284 11C11.1584 11 11.8284 10.33 11.8284 9.5Z" fill="white"/>
</g>
</svg>
