<svg width="24" height="24" viewBox="0 0 24 24" fill="none" xmlns="http://www.w3.org/2000/svg">
<path d="M11.25 8.58752V7.88752C10.5333 7.70419 9.9375 7.32092 9.4625 6.73772C8.9875 6.15454 8.75 5.47947 8.75 4.71252C8.75 3.81491 9.06751 3.04883 9.70253 2.4143C10.3375 1.77978 11.1042 1.46252 12.0025 1.46252C12.9008 1.46252 13.6667 1.77978 14.3 2.4143C14.9333 3.04883 15.25 3.81491 15.25 4.71252C15.25 5.47947 15.0125 6.15454 14.5375 6.73772C14.0625 7.32092 13.4667 7.70419 12.75 7.88752V8.58752L20.25 12.9125C20.4875 13.0487 20.6719 13.2313 20.8031 13.4604C20.9344 13.6894 21 13.9401 21 14.2125V16.7125C21 16.9849 20.9344 17.2356 20.8031 17.4647C20.6719 17.6937 20.4875 17.8763 20.25 18.0125L12.75 22.3375C12.5112 22.4709 12.2598 22.5375 11.9959 22.5375C11.732 22.5375 11.4833 22.4709 11.25 22.3375L3.75 18.0125C3.5125 17.8763 3.32812 17.6937 3.19688 17.4647C3.06562 17.2356 3 16.9849 3 16.7125V14.2125C3 13.9401 3.06562 13.6894 3.19688 13.4604C3.32812 13.2313 3.5125 13.0487 3.75 12.9125L11.25 8.58752ZM11.25 13.9625V10.3125L5.625 13.5625L12 17.2375L18.35 13.5375L12.75 10.3125V13.9625H11.25Z" fill="white"/>
</svg>
