<svg width="25" height="24" viewBox="0 0 25 24" fill="none" xmlns="http://www.w3.org/2000/svg">
<g id="joystic-game">
<path id="Vector" d="M11.778 8.125V7.425C11.0613 7.24167 10.4655 6.8584 9.99045 6.2752C9.51545 5.69202 9.27795 5.01695 9.27795 4.25C9.27795 3.35238 9.59546 2.58631 10.2305 1.95177C10.8655 1.31726 11.6322 1 12.5305 1C13.4288 1 14.1946 1.31726 14.828 1.95177C15.4613 2.58631 15.778 3.35238 15.778 4.25C15.778 5.01695 15.5405 5.69202 15.0655 6.2752C14.5905 6.8584 13.9946 7.24167 13.278 7.425V8.125L20.778 12.45C21.0155 12.5862 21.1998 12.7688 21.3311 12.9979C21.4623 13.2269 21.528 13.4776 21.528 13.75V16.25C21.528 16.5224 21.4623 16.7731 21.3311 17.0021C21.1998 17.2312 21.0155 17.4138 20.778 17.55L13.278 21.875C13.0392 22.0083 12.7878 22.075 12.5239 22.075C12.2599 22.075 12.0113 22.0083 11.778 21.875L4.27795 17.55C4.04045 17.4138 3.85608 17.2312 3.72483 17.0021C3.59358 16.7731 3.52795 16.5224 3.52795 16.25V13.75C3.52795 13.4776 3.59358 13.2269 3.72483 12.9979C3.85608 12.7688 4.04045 12.5862 4.27795 12.45L11.778 8.125ZM11.778 18.05L5.02795 14.175V16.25L12.528 20.575L20.028 16.25V14.15L13.278 18.05C13.0392 18.1833 12.7878 18.25 12.5239 18.25C12.2599 18.25 12.0113 18.1833 11.778 18.05ZM11.778 13.5V9.85L6.15295 13.1L12.528 16.775L18.878 13.075L13.278 9.85V13.5H11.778ZM12.525 6C13.0103 6 13.4238 5.83015 13.7655 5.49045C14.1071 5.15073 14.278 4.73823 14.278 4.25295C14.278 3.76765 14.1081 3.35417 13.7684 3.0125C13.4287 2.67083 13.0162 2.5 12.5309 2.5C12.0456 2.5 11.6321 2.66985 11.2905 3.00955C10.9488 3.34927 10.778 3.76177 10.778 4.24705C10.778 4.73235 10.9478 5.14583 11.2875 5.4875C11.6272 5.82917 12.0397 6 12.525 6Z" fill="#EAEAEB"/>
</g>
</svg>
