<svg width="24" height="24" viewBox="0 0 24 24" fill="none" xmlns="http://www.w3.org/2000/svg">
<g id="network_check_24px">
<path id="icon/notification/network_check_24px" fill-rule="evenodd" clip-rule="evenodd" d="M1 9L3 11C5.88 8.12 9.79 6.92 13.53 7.38L14.72 4.7C9.89 3.84 4.74 5.27 1 9ZM15.9 5C15.73 5 15.58 5.09 15.49 5.23L15.42 5.38L10.24 17.03C10.08 17.32 9.98 17.64 9.98 17.99C9.98 19.1 10.88 20 11.99 20C12.95 20 13.76 19.32 13.95 18.41L13.96 18.38L16.4 5.5C16.4 5.22 16.18 5 15.9 5ZM23 9L21 11C19.78 9.78 18.38 8.87 16.88 8.25L17.41 5.43C19.45 6.18 21.36 7.36 23 9ZM17 15L19 13C18.2 12.2 17.3 11.58 16.34 11.11L15.79 14.03C16.21 14.3 16.62 14.62 17 15ZM7 15L5 13C7.01 10.99 9.68 10.04 12.31 10.12L11.03 13C9.56 13.21 8.13 13.87 7 15Z" fill="white"/>
</g>
</svg>
