<svg width="25" height="26" viewBox="0 0 25 26" fill="none" xmlns="http://www.w3.org/2000/svg">
<g id="nexus-logo-white">
<path id="Fill 1" fill-rule="evenodd" clip-rule="evenodd" d="M6.79304 24.5956C6.58425 24.5712 6.37474 24.5239 6.15274 24.4507C5.74922 24.3178 5.41242 24.139 5.16417 23.9981C4.61729 23.6878 4.06122 23.2987 3.46441 22.8088C3.20381 22.5947 2.94996 22.3699 2.70945 22.1405L2.50281 21.944C2.35888 21.8166 2.2359 21.6738 2.13502 21.52C1.94631 21.2386 1.79549 20.8629 1.77268 20.371C1.7589 20.2108 1.75101 20.0495 1.74929 19.8888C1.74541 19.5385 1.76952 19.1771 1.82104 18.8143C1.92622 18.0734 2.15869 17.4074 2.34955 16.91C2.36519 16.8691 2.38112 16.8282 2.39734 16.7872C2.3441 16.6512 2.29358 16.5143 2.24623 16.3771C1.97229 15.5837 1.79262 14.7574 1.71198 13.9211C1.62717 13.0403 1.65128 12.1504 1.78373 11.2769C1.81157 11.0931 1.84457 10.9091 1.88217 10.726C1.53963 10.2302 1.10526 9.52449 0.835476 8.68329L0.83031 8.66765C0.771905 8.48842 0.635005 8.06896 0.710774 7.51979C0.7389 7.31716 0.787977 7.11483 0.861162 6.9003C0.996627 6.50294 1.17442 6.17146 1.31405 5.92707C1.62473 5.38393 2.01132 4.83317 2.49621 4.24338C2.70931 3.98422 2.93187 3.73281 3.15817 3.49589L3.35578 3.2881C3.45866 3.17258 3.57203 3.06998 3.69401 2.98144C3.98345 2.76533 4.38467 2.58423 4.92768 2.55912C5.10548 2.54376 5.28758 2.53573 5.46982 2.5353H5.48374C5.84809 2.5353 6.22464 2.56558 6.60305 2.62527C7.17088 2.71496 7.69136 2.87539 8.15242 3.0453C8.4598 2.91356 8.77565 2.79532 9.09336 2.69343C9.88734 2.43843 10.7129 2.277 11.5474 2.21357C12.4213 2.14698 13.3108 2.18817 14.1701 2.33497C14.37 2.36912 14.5703 2.4093 14.7694 2.45522C15.4451 1.99157 16.0673 1.67286 16.7079 1.46091L16.7221 1.45603C16.8722 1.4038 17.1846 1.29517 17.5985 1.29517C17.688 1.29517 17.7784 1.30033 17.867 1.31066C18.0759 1.33506 18.2854 1.38241 18.5073 1.45546C18.9111 1.58848 19.2477 1.76728 19.496 1.90834C20.043 2.21859 20.5991 2.60777 21.1958 3.09768C21.4562 3.31149 21.7102 3.53636 21.9509 3.76596L22.1572 3.96212C22.2601 4.05325 22.3522 4.15212 22.4333 4.2573C22.6935 4.58764 22.8965 5.05703 22.9005 5.71857C22.914 5.9542 22.9146 6.1947 22.9024 6.4355C22.8759 6.96214 22.7964 7.46397 22.6662 7.9269C22.5705 8.26699 22.4563 8.61211 22.3258 8.95565C22.5797 9.59739 22.771 10.2625 22.8961 10.9391C23.1581 12.3562 23.1289 13.8219 22.8152 15.2269C23.0076 15.5062 23.1709 15.7646 23.3128 16.0147C23.5595 16.4494 23.7552 16.8973 23.8944 17.3457C23.9461 17.5122 24.0826 17.9521 23.9926 18.5155C23.9613 18.7112 23.9099 18.9088 23.8357 19.1185C23.5764 19.8512 23.1728 20.4482 22.8147 20.9501C22.4207 21.5025 21.9866 22.0271 21.5239 22.5097L21.3566 22.6856C21.2524 22.8032 21.1372 22.9068 21.0134 22.9962C20.7245 23.2103 20.3247 23.3895 19.7851 23.4148C19.6072 23.4303 19.425 23.438 19.2427 23.4386H19.2284C18.8452 23.4386 18.4486 23.405 18.0498 23.3389C17.4109 23.2329 16.8276 23.0366 16.3203 22.838C16.0445 22.9477 15.7635 23.0463 15.4814 23.1322C14.6738 23.3779 13.836 23.5273 12.9913 23.5761C12.1135 23.6271 11.2226 23.5687 10.3623 23.4046C10.258 23.3846 10.1537 23.3631 10.0496 23.34C9.30502 23.8666 8.63645 24.2188 7.95195 24.4454L7.93789 24.4501C7.78779 24.5025 7.47539 24.611 7.06153 24.611C6.97199 24.611 6.88158 24.6058 6.79304 24.5956Z" stroke="white"/>
<path id="Fill 14" fill-rule="evenodd" clip-rule="evenodd" d="M9.19475 9.83336C8.68949 9.60505 8.32457 9.37502 7.94515 9.10409C7.3657 8.70803 6.8379 8.25744 6.39061 7.79035C5.3023 6.68051 4.80544 5.51897 4.96372 4.59253L4.56571 4.96166C3.77431 5.7944 2.72403 7.25064 2.71484 7.88419L2.73422 7.95107C2.8747 8.43567 3.11363 8.92285 3.44383 9.39913L3.44928 9.40688C3.87519 10.0981 4.72586 11.226 7.73894 12.5482L7.20612 13.5495L11.2725 12.4571L9.80764 8.6911L9.19475 9.83336Z" fill="white"/>
<path id="Fill 16" fill-rule="evenodd" clip-rule="evenodd" d="M15.5177 16.1402C16.0231 16.3685 16.3879 16.5985 16.7673 16.8694C17.3469 17.2655 17.8745 17.7159 18.3218 18.1832C19.4103 19.2929 19.8573 20.3428 19.6991 21.269L20.1469 21.0119C20.9383 20.1791 21.9884 18.7229 21.9977 18.0893L21.9782 18.0225C21.8377 17.5379 21.5989 17.0505 21.2686 16.5743L21.2632 16.5666C20.8374 15.8754 19.9866 14.7475 16.9735 13.4253L17.5063 12.4241L13.4399 13.5164L14.9049 17.2824L15.5177 16.1402Z" fill="white"/>
<path id="Fill 18" fill-rule="evenodd" clip-rule="evenodd" d="M15.6128 9.8022C15.841 9.29679 16.0712 8.93201 16.3421 8.55259C16.738 7.97314 17.1887 7.44534 17.6557 6.99805C18.7657 5.9096 19.9196 5.4049 20.846 5.56318L20.4844 5.17301C19.6518 4.38161 18.1955 3.33147 17.5621 3.32214L17.4951 3.34166C17.0104 3.48215 16.5233 3.72093 16.0471 4.05127L16.0393 4.05672C15.3481 4.48263 14.2201 5.3333 12.8979 8.34638L11.8967 7.81357L12.9891 11.8799L16.7551 10.4149L15.6128 9.8022Z" fill="white"/>
<path id="Fill 20" fill-rule="evenodd" clip-rule="evenodd" d="M9.04705 16.1036C8.81874 16.609 8.58871 16.9738 8.31778 17.3531C7.92172 17.9327 7.47113 18.4605 7.00417 18.9078C5.8942 19.9962 4.74309 20.4567 3.81665 20.2984L4.17549 20.7328C5.00808 21.5241 6.46433 22.5743 7.09774 22.5835L7.16475 22.5642C7.6495 22.4237 8.13654 22.1849 8.61282 21.8544L8.62056 21.8491C9.31181 21.4232 10.4397 20.5725 11.7621 17.5594L12.7631 18.0923L11.6708 14.0259L7.90478 15.4907L9.04705 16.1036Z" fill="white"/>
</g>
</svg>
