<svg width="24" height="24" viewBox="0 0 24 24" fill="none" xmlns="http://www.w3.org/2000/svg">
<g id="settings_24px">
<path id="icon/action/settings_24px" fill-rule="evenodd" clip-rule="evenodd" d="M19.5 12C19.5 12.34 19.47 12.66 19.43 12.98L21.54 14.63C21.73 14.78 21.78 15.05 21.66 15.27L19.66 18.73C19.54 18.95 19.28 19.04 19.05 18.95L16.56 17.95C16.04 18.34 15.48 18.68 14.87 18.93L14.49 21.58C14.46 21.82 14.25 22 14 22H9.99996C9.74996 22 9.53996 21.82 9.50996 21.58L9.12996 18.93C8.51996 18.68 7.95996 18.35 7.43996 17.95L4.94996 18.95C4.72996 19.03 4.45996 18.95 4.33996 18.73L2.33996 15.27C2.21996 15.05 2.26996 14.78 2.45996 14.63L4.56996 12.98C4.52996 12.66 4.49996 12.33 4.49996 12C4.49996 11.67 4.52996 11.34 4.56996 11.02L2.45996 9.37C2.26996 9.22 2.20996 8.95 2.33996 8.73L4.33996 5.27C4.45996 5.05 4.71996 4.96 4.94996 5.05L7.43996 6.05C7.95996 5.66 8.51996 5.32 9.12996 5.07L9.50996 2.42C9.53996 2.18 9.74996 2 9.99996 2H14C14.25 2 14.46 2.18 14.49 2.42L14.87 5.07C15.48 5.32 16.04 5.65 16.56 6.05L19.05 5.05C19.27 4.97 19.54 5.05 19.66 5.27L21.66 8.73C21.78 8.95 21.73 9.22 21.54 9.37L19.43 11.02C19.47 11.34 19.5 11.66 19.5 12ZM8.49996 12C8.49996 13.93 10.07 15.5 12 15.5C13.93 15.5 15.5 13.93 15.5 12C15.5 10.07 13.93 8.5 12 8.5C10.07 8.5 8.49996 10.07 8.49996 12Z" fill="white"/>
</g>
</svg>
