<svg width="24" height="24" viewBox="0 0 24 24" fill="none" xmlns="http://www.w3.org/2000/svg">
<g id="sync_24px">
<path id="icon/notification/sync_24px" fill-rule="evenodd" clip-rule="evenodd" d="M11.52 1V4C15.7632 4 19.2 7.58 19.2 12C19.2 13.57 18.7584 15.03 18.0096 16.26L16.608 14.8C17.04 13.97 17.28 13.01 17.28 12C17.28 8.69 14.6976 6 11.52 6V9L7.67997 5L11.52 1ZM5.75997 12C5.75997 15.31 8.34237 18 11.52 18V15L15.36 19L11.52 23V20C7.27677 20 3.83997 16.42 3.83997 12C3.83997 10.43 4.28157 8.97 5.03037 7.74L6.43197 9.2C5.99997 10.03 5.75997 10.99 5.75997 12Z" fill="white"/>
</g>
</svg>
