<svg width="24" height="24" viewBox="0 0 24 24" fill="none" xmlns="http://www.w3.org/2000/svg">
<g id="sync_disabled_24px">
<path id="icon/notification/sync_disabled_24px" fill-rule="evenodd" clip-rule="evenodd" d="M2.85999 5.41L4.26999 4L20.22 19.95L18.81 21.36L16.23 18.78C15.55 19.2 14.8 19.53 14 19.74V17.65C14.26 17.55 14.51 17.44 14.76 17.31L6.67999 9.23C6.24999 10.06 5.99999 11 5.99999 12C5.99999 13.66 6.67999 15.15 7.75999 16.24L9.99999 14V20H3.99999L6.35999 17.64C4.90999 16.2 3.99999 14.21 3.99999 12C3.99999 10.44 4.44999 8.99 5.21999 7.77L2.85999 5.41ZM20 12C20 9.79 19.09 7.8 17.64 6.36L20 4H14V10L16.24 7.76C17.32 8.85 18 10.34 18 12C18 12.85 17.81 13.65 17.49 14.38L18.99 15.88C19.63 14.74 20 13.41 20 12ZM9.99999 6.35V4.26C9.33999 4.43 8.70999 4.69 8.11999 5.01L9.61999 6.51C9.68499 6.485 9.74749 6.4575 9.80999 6.43C9.87249 6.4025 9.93499 6.375 9.99999 6.35Z" fill="white"/>
</g>
</svg>
