<svg width="25" height="24" viewBox="0 0 25 24" fill="none" xmlns="http://www.w3.org/2000/svg">
<g id="Thumb up off alt" clip-path="url(#clip0_2818_13754)">
<path id="Vector" d="M13.3576 6.13333L12.7306 9.34444C12.5986 10 12.7746 10.6778 13.1926 11.1889C13.6106 11.7 14.2266 12 14.8866 12H20.9366V13.2L18.1096 19.7778H9.2106C9.0126 19.7778 8.8366 19.6 8.8366 19.4V10.6889L13.3576 6.13333ZM14.3366 2L7.2856 9.12222C6.8676 9.54444 6.6366 10.1111 6.6366 10.7V19.4C6.6366 20.8333 7.7916 22 9.2106 22H18.1206C18.9016 22 19.6166 21.5889 20.0126 20.9222L22.9496 14.0889C23.0706 13.8111 23.1366 13.5111 23.1366 13.2V12C23.1366 10.7778 22.1466 9.77778 20.9366 9.77778H14.8866L15.8986 4.61111C15.9536 4.36667 15.9206 4.1 15.8106 3.87778C15.5576 3.37778 15.2386 2.92222 14.8426 2.52222L14.3366 2ZM3.3366 9.77778H1.1366V22H3.3366C3.9416 22 4.4366 21.5 4.4366 20.8889V10.8889C4.4366 10.2778 3.9416 9.77778 3.3366 9.77778Z" fill="white"/>
</g>
<defs>
<clipPath id="clip0_2818_13754">
<rect width="24" height="24" fill="white" transform="translate(0.136597)"/>
</clipPath>
</defs>
</svg>
