<svg width="25" height="24" viewBox="0 0 25 24" fill="none" xmlns="http://www.w3.org/2000/svg">
<g clip-path="url(#clip0_6632_24631)">
<path d="M8.11124 15.9C6.71607 15.9 4.75206 18.0728 4.75206 19.4452C4.73659 20.0632 5.20663 20.4333 5.99835 20.4333C6.85616 20.4333 7.42394 19.9888 8.11124 19.9888C8.80558 19.9888 9.37511 20.4333 10.2241 20.4333C10.9993 20.4333 11.4852 20.0635 11.4852 19.4461C11.4704 18.0745 9.50694 15.9 8.11124 15.9ZM5.52374 15.6768C5.34146 15.0638 4.77667 14.6653 4.2648 14.7893C3.75292 14.9133 3.48637 15.5104 3.66872 16.1231C3.85101 16.7376 4.41579 17.136 4.92767 17.012C5.43954 16.8881 5.7048 16.2895 5.52374 15.6768ZM7.01261 15.3085C7.55524 15.1646 7.82771 14.439 7.61905 13.6551C7.4104 12.8711 6.80167 12.396 6.25692 12.524C5.71429 12.6679 5.44183 13.3935 5.65048 14.1775C5.85948 14.9455 6.46769 15.4537 7.01261 15.3085ZM11.9591 14.7897C11.4472 14.6816 10.8824 15.0641 10.7001 15.6772C10.5179 16.2904 10.7836 16.8879 11.2955 17.0119C11.8074 17.1199 12.3699 16.7374 12.5545 16.1243C12.736 15.5104 12.4548 14.9136 11.9591 14.7897ZM9.20987 15.3085C9.73898 15.4524 10.3634 14.9455 10.572 14.1775C10.7807 13.4095 10.5083 12.6678 9.96556 12.524C9.43646 12.3802 8.81208 12.8871 8.60343 13.6551C8.39425 14.4231 8.66671 15.1651 9.20987 15.3085Z" fill="white"/>
</g>
<g clip-path="url(#clip1_6632_24631)">
<path d="M17.1112 7.96661C15.7161 7.96661 13.7521 10.1394 13.7521 11.5118C13.7366 12.1298 14.2066 12.4999 14.9984 12.4999C15.8562 12.4999 16.4239 12.0555 17.1112 12.0555C17.8056 12.0555 18.3751 12.4999 19.2241 12.4999C19.9993 12.4999 20.4852 12.1302 20.4852 11.5127C20.4704 10.1412 18.5069 7.96661 17.1112 7.96661ZM14.5237 7.74349C14.3415 7.13043 13.7767 6.73199 13.2648 6.85595C12.7529 6.9799 12.4864 7.57703 12.6687 8.18974C12.851 8.80422 13.4158 9.20265 13.9277 9.0787C14.4395 8.95474 14.7048 8.3562 14.5237 7.74349ZM16.0126 7.37515C16.5552 7.23127 16.8277 6.50568 16.6191 5.72173C16.4104 4.93778 15.8017 4.46266 15.2569 4.5907C14.7143 4.73458 14.4418 5.46018 14.6505 6.24412C14.8595 7.01213 15.4677 7.52036 16.0126 7.37515ZM20.9591 6.8563C20.4472 6.74828 19.8824 7.13078 19.7001 7.74384C19.5179 8.35708 19.7836 8.95456 20.2955 9.07852C20.8074 9.18654 21.3699 8.80404 21.5545 8.19098C21.736 7.57703 21.4548 6.98026 20.9591 6.8563ZM18.2099 7.37515C18.739 7.51904 19.3634 7.01213 19.572 6.24412C19.7807 5.47611 19.5083 4.73449 18.9656 4.5907C18.4365 4.44682 17.8121 4.95372 17.6034 5.72173C17.3942 6.48974 17.6667 7.23172 18.2099 7.37515Z" fill="white"/>
</g>
<defs>
<clipPath id="clip0_6632_24631">
<rect width="9" height="9.06667" fill="white" transform="translate(3.61108 11.9333)"/>
</clipPath>
<clipPath id="clip1_6632_24631">
<rect width="9" height="9.06667" fill="white" transform="translate(12.6111 4)"/>
</clipPath>
</defs>
</svg>
