<svg width="24" height="24" viewBox="0 0 24 24" fill="none" xmlns="http://www.w3.org/2000/svg">
<g id="wifi_off_24px">
<path id="icon/notification/wifi_off_24px" fill-rule="evenodd" clip-rule="evenodd" d="M2 3.05L3.41 1.64L20.38 18.61L18.97 20.02L11.89 12.94C10.11 12.96 8.35 13.65 7 15L5 13C6.27 11.74 7.79 10.89 9.41 10.46L7.17 8.22C5.65 8.84 4.23 9.77 3 11L1 9C2.22 7.79 3.59 6.83 5.05 6.1L2 3.05ZM23 9L21 11C18.49 8.49 15.18 7.25 11.88 7.27L9.3 4.69C14.13 3.85 19.27 5.27 23 9ZM15.28 10.67C16.64 11.15 17.92 11.92 19 13L18.3 13.69L15.28 10.67ZM9 17L12 20L15 17C13.35 15.34 10.66 15.34 9 17Z" fill="white"/>
</g>
</svg>
